<svg viewBox="0 0 280 208" width="280" height="208" xmlns="http://www.w3.org/2000/svg"><defs></defs><rect width="280" height="180" rx="4" fill="#2d6a2d" stroke="#1a4a1a" stroke-width="1.5"></rect><rect x="4" y="4" width="272" height="172" rx="3" fill="none" stroke="rgba(255,255,255,.25)" stroke-width="1"></rect><defs><marker id="arr-p" markerWidth="6" markerHeight="6" refX="5" refY="3" orient="auto"><path d="M0,0 L6,3 L0,6 Z" fill="#ffffff"></path></marker><marker id="arr-l" markerWidth="6" markerHeight="6" refX="5" refY="3" orient="auto"><path d="M0,0 L6,3 L0,6 Z" fill="#fde047"></path></marker><marker id="arr-s" markerWidth="6" markerHeight="6" refX="5" refY="3" orient="auto"><path d="M0,0 L6,3 L0,6 Z" fill="#fca5a5"></path></marker><marker id="arr-d" markerWidth="6" markerHeight="6" refX="5" refY="3" orient="auto"><path d="M0,0 L6,3 L0,6 Z" fill="#7dd3fc"></path></marker></defs><line x1="142" y1="10" x2="142" y2="170" stroke="rgba(255,255,255,.7)" stroke-width="2"></line><line x1="88" y1="16" x2="88" y2="164" stroke="#fbbf24" stroke-width="2" stroke-dasharray="5,4"></line><line x1="197" y1="16" x2="197" y2="164" stroke="#fbbf24" stroke-width="2" stroke-dasharray="5,4"></line><rect x="10" y="28" width="7" height="18" rx="2" fill="none" stroke="#fff" stroke-width="2.5"></rect><rect x="10" y="114" width="7" height="18" rx="2" fill="none" stroke="#fff" stroke-width="2.5"></rect><rect x="263" y="28" width="7" height="18" rx="2" fill="none" stroke="#fff" stroke-width="2.5"></rect><rect x="263" y="114" width="7" height="18" rx="2" fill="none" stroke="#fff" stroke-width="2.5"></rect><line x1="212" y1="85" x2="155" y2="53" stroke="#ffffff" stroke-width="1.5" marker-end="url(#arr-p)"></line><line x1="142" y1="53" x2="142" y2="127" stroke="#ffffff" stroke-width="1.5" marker-end="url(#arr-p)"></line><line x1="155" y1="129" x2="213" y2="96" stroke="#ffffff" stroke-width="1.5" marker-end="url(#arr-p)"></line><circle cx="223" cy="90" r="8" fill="#4ade80" stroke="rgba(0,0,0,.3)" stroke-width="1.5"></circle><text x="223" y="93" text-anchor="middle" fill="rgba(0,0,0,.65)" font-size="8" font-family="sans-serif" font-weight="700">S</text><circle cx="142" cy="47" r="8" fill="#4ade80" stroke="rgba(0,0,0,.3)" stroke-width="1.5"></circle><text x="142" y="50" text-anchor="middle" fill="rgba(0,0,0,.65)" font-size="8" font-family="sans-serif" font-weight="700">S</text><circle cx="142" cy="133" r="8" fill="#4ade80" stroke="rgba(0,0,0,.3)" stroke-width="1.5"></circle><text x="142" y="136" text-anchor="middle" fill="rgba(0,0,0,.65)" font-size="8" font-family="sans-serif" font-weight="700">S</text><circle cx="117" cy="90" r="8" fill="#f87171" stroke="rgba(0,0,0,.3)" stroke-width="1.5"></circle><text x="117" y="93" text-anchor="middle" fill="rgba(0,0,0,.65)" font-size="8" font-family="sans-serif" font-weight="700">O</text><circle cx="58" cy="63" r="8" fill="#f87171" stroke="rgba(0,0,0,.3)" stroke-width="1.5"></circle><text x="58" y="66" text-anchor="middle" fill="rgba(0,0,0,.65)" font-size="8" font-family="sans-serif" font-weight="700">O</text><circle cx="55" cy="122" r="8" fill="#f87171" stroke="rgba(0,0,0,.3)" stroke-width="1.5"></circle><text x="55" y="125" text-anchor="middle" fill="rgba(0,0,0,.65)" font-size="8" font-family="sans-serif" font-weight="700">O</text><circle cx="236" cy="95" r="4" fill="#111827" stroke="#ffffff" stroke-width="1"></circle><text x="140" y="177" text-anchor="middle" fill="rgba(255,255,255,.85)" font-size="9" font-family="sans-serif" font-weight="600">25 x 20 m - Dreieck im Ballbesitz</text><rect x="0" y="180" width="280" height="28" fill="#1f4d1f"/><line x1="6" y1="192" x2="21" y2="192" stroke="#ffffff" stroke-width="1.5"/><path d="M21,188.8 L28,192 L21,195.2 Z" fill="#ffffff"/><text x="34" y="195" fill="rgba(255,255,255,.85)" font-size="8" font-family="sans-serif" font-weight="600">Pass</text><line x1="99.33333333333333" y1="192" x2="121.33333333333333" y2="192" stroke="#fbbf24" stroke-width="2" stroke-dasharray="5,4"/><text x="127.33333333333333" y="195" fill="rgba(255,255,255,.85)" font-size="8" font-family="sans-serif" font-weight="600">Schusszone</text></svg>