<svg viewBox="0 0 280 208" width="280" height="208" xmlns="http://www.w3.org/2000/svg"><defs></defs><rect width="280" height="180" rx="4" fill="#2d6a2d" stroke="#1a4a1a" stroke-width="1.5"></rect><rect x="4" y="4" width="272" height="172" rx="3" fill="none" stroke="rgba(255,255,255,.25)" stroke-width="1"></rect><defs><marker id="arr-p" markerWidth="6" markerHeight="6" refX="5" refY="3" orient="auto"><path d="M0,0 L6,3 L0,6 Z" fill="#ffffff"></path></marker><marker id="arr-l" markerWidth="6" markerHeight="6" refX="5" refY="3" orient="auto"><path d="M0,0 L6,3 L0,6 Z" fill="#fde047"></path></marker><marker id="arr-s" markerWidth="6" markerHeight="6" refX="5" refY="3" orient="auto"><path d="M0,0 L6,3 L0,6 Z" fill="#fca5a5"></path></marker><marker id="arr-d" markerWidth="6" markerHeight="6" refX="5" refY="3" orient="auto"><path d="M0,0 L6,3 L0,6 Z" fill="#7dd3fc"></path></marker></defs><rect x="48" y="15" width="184" height="150" rx="3" fill="rgba(255,255,255,.07)" stroke="rgba(255,255,255,.35)" stroke-width="1.5" stroke-dasharray="6,3"></rect><rect x="38" y="38" width="7" height="20" rx="2" fill="none" stroke="#fff" stroke-width="2.5"></rect><rect x="38" y="112" width="7" height="20" rx="2" fill="none" stroke="#fff" stroke-width="2.5"></rect><rect x="234" y="38" width="7" height="20" rx="2" fill="none" stroke="#fff" stroke-width="2.5"></rect><rect x="234" y="112" width="7" height="20" rx="2" fill="none" stroke="#fff" stroke-width="2.5"></rect><circle cx="12" cy="87" r="2.6" fill="#111827" stroke="#ffffff" stroke-width="0.8"></circle><circle cx="8.5" cy="92" r="2.6" fill="#111827" stroke="#ffffff" stroke-width="0.8"></circle><circle cx="15.5" cy="92" r="2.6" fill="#111827" stroke="#ffffff" stroke-width="0.8"></circle><path d="M4,95.5 Q12,100 20,95.5" fill="none" stroke="rgba(255,255,255,.85)" stroke-width="1.2"></path><circle cx="272" cy="87" r="2.6" fill="#111827" stroke="#ffffff" stroke-width="0.8"></circle><circle cx="268.5" cy="92" r="2.6" fill="#111827" stroke="#ffffff" stroke-width="0.8"></circle><circle cx="275.5" cy="92" r="2.6" fill="#111827" stroke="#ffffff" stroke-width="0.8"></circle><path d="M264,95.5 Q272,100 280,95.5" fill="none" stroke="rgba(255,255,255,.85)" stroke-width="1.2"></path><line x1="90" y1="86" x2="106" y2="70" stroke="#ffffff" stroke-width="1.5" marker-end="url(#arr-p)"></line><circle cx="85.1" cy="90.9" r="5.5" fill="rgba(0,0,0,.6)" stroke="#ffffff" stroke-width="1.2"></circle><text x="85.1" y="93.60000000000001" text-anchor="middle" fill="#ffffff" font-size="7.5" font-family="sans-serif" font-weight="700">1</text><line x1="128" y1="56" x2="236" y2="48" stroke="#fca5a5" stroke-width="3" marker-end="url(#arr-s)"></line><circle cx="120.3" cy="46.5" r="5.5" fill="rgba(0,0,0,.6)" stroke="#fca5a5" stroke-width="1.2"></circle><text x="120.3" y="49.2" text-anchor="middle" fill="#fca5a5" font-size="7.5" font-family="sans-serif" font-weight="700">2</text><circle cx="110" cy="60" r="8" fill="#4ade80" stroke="rgba(0,0,0,.3)" stroke-width="1.5"></circle><text x="110" y="63" text-anchor="middle" fill="rgba(0,0,0,.65)" font-size="8" font-family="sans-serif" font-weight="700">A</text><circle cx="70" cy="95" r="8" fill="#4ade80" stroke="rgba(0,0,0,.3)" stroke-width="1.5"></circle><text x="70" y="98" text-anchor="middle" fill="rgba(0,0,0,.65)" font-size="8" font-family="sans-serif" font-weight="700">B</text><circle cx="24" cy="114" r="8" fill="#4ade80" stroke="rgba(0,0,0,.3)" stroke-width="1.5"></circle><text x="24" y="117" text-anchor="middle" fill="rgba(0,0,0,.65)" font-size="8" font-family="sans-serif" font-weight="700">C</text><circle cx="190" cy="90" r="8" fill="#f87171" stroke="rgba(0,0,0,.3)" stroke-width="1.5"></circle><text x="190" y="93" text-anchor="middle" fill="rgba(0,0,0,.65)" font-size="8" font-family="sans-serif" font-weight="700">D</text><circle cx="258" cy="90" r="8" fill="#f87171" stroke="rgba(0,0,0,.3)" stroke-width="1.5"></circle><text x="258" y="93" text-anchor="middle" fill="rgba(0,0,0,.65)" font-size="8" font-family="sans-serif" font-weight="700">E</text><circle cx="258" cy="114" r="8" fill="#f87171" stroke="rgba(0,0,0,.3)" stroke-width="1.5"></circle><text x="258" y="117" text-anchor="middle" fill="rgba(0,0,0,.65)" font-size="8" font-family="sans-serif" font-weight="700">F</text><circle cx="78" cy="102" r="4" fill="#111827" stroke="#ffffff" stroke-width="1"></circle><text x="140" y="176" text-anchor="middle" fill="rgba(255,255,255,.85)" font-size="9" font-family="sans-serif" font-weight="600">2 gegen 1, dann weiter bis 4 gegen 4</text><rect x="0" y="180" width="280" height="28" fill="#1f4d1f"/><line x1="6" y1="192" x2="21" y2="192" stroke="#ffffff" stroke-width="1.5"/><path d="M21,188.8 L28,192 L21,195.2 Z" fill="#ffffff"/><text x="34" y="195" fill="rgba(255,255,255,.85)" font-size="8" font-family="sans-serif" font-weight="600">Pass</text><line x1="99.33333333333333" y1="192" x2="114.33333333333333" y2="192" stroke="#fca5a5" stroke-width="3"/><path d="M114.33333333333333,188.8 L121.33333333333333,192 L114.33333333333333,195.2 Z" fill="#fca5a5"/><text x="127.33333333333333" y="195" fill="rgba(255,255,255,.85)" font-size="8" font-family="sans-serif" font-weight="600">Schuss</text><path d="M192.7 192 Q195.5 194.8 198.3 192 Q201.1 189.2 203.9 192 L207.7 192" fill="none" stroke="#7dd3fc" stroke-width="1.5" stroke-linecap="round"/><path d="M207.66666666666666,188.8 L214.66666666666666,192 L207.66666666666666,195.2 Z" fill="#7dd3fc"/><text x="220.66666666666666" y="195" fill="rgba(255,255,255,.85)" font-size="8" font-family="sans-serif" font-weight="600">Dribbling</text></svg>